<?xml version="1.0" encoding="UTF-8"?>
<svg xmlns="http://www.w3.org/2000/svg" viewBox="0 0 280 220" width="280" height="220" role="img" aria-labelledby="title desc">
  <title id="title">Menton Builders</title>
  <desc id="desc">Menton Builders stacked logo with wordmarks converted to paths for font-independent rendering.</desc>
  <g fill="none" stroke="#8C7E6E" stroke-width="10" stroke-linejoin="miter" stroke-miterlimit="10">
    <polygon points="126,25 176,75 126,125 76,75"/>
    <polygon points="154,25 204,75 154,125 104,75"/>
    <line x1="126" y1="25" x2="176" y2="75"/>
  </g>
  <path fill="#2F2C28" d="M54.72 173.69L68.41 146.01L68.75 149.41L57.58 172.26Q57.58 172.26 57.22 173.00Q56.86 173.73 56.50 174.74Q56.15 175.75 56.06 176.67L56.06 176.67L55.64 176.67L54.72 173.69ZM40.78 172.93L41.70 172.93L41.70 176L37.04 176L37.04 175.58Q37.08 175.58 37.39 175.58Q37.71 175.58 37.71 175.58L37.71 175.58Q38.84 175.58 39.73 174.89Q40.61 174.19 40.78 172.93L40.78 172.93ZM42.83 173.61L43.13 173.61Q43.13 173.65 43.13 173.69Q43.13 173.73 43.13 173.82L43.13 173.82Q43.13 174.49 43.61 175.06Q44.09 175.62 44.77 175.62L44.77 175.62L45.40 175.62L45.40 176L42.83 176L42.83 173.61ZM40.40 176L44.05 146.01L44.43 146.01L45.48 149.08L42.92 176L40.40 176ZM43.55 152.48L44.43 146.01L57.07 170.96L55.64 176.67L43.55 152.48ZM68.41 146.01L68.79 146.01L72.53 176L68.08 176L65.85 152.61L68.41 146.01ZM71.27 176L71.27 172.93L72.15 172.93Q72.36 174.19 73.24 174.89Q74.12 175.58 75.22 175.58L75.22 175.58Q75.22 175.58 75.55 175.58Q75.89 175.58 75.89 175.58L75.89 175.58L75.89 176L71.27 176ZM67.87 173.61L67.87 173.61L68.16 173.61L68.16 176L65.60 176L65.60 175.62L66.23 175.62Q66.94 175.62 67.40 175.06Q67.87 174.49 67.87 173.82L67.87 173.82Q67.87 173.73 67.87 173.69Q67.87 173.65 67.87 173.61Z M83.32 146.60L87.23 146.60L87.23 176L83.32 176L83.32 146.60ZM87.10 174.53L98.48 174.53L98.82 176L87.10 176L87.10 174.53ZM87.10 160.80L96.76 160.80L96.76 162.22L87.10 162.22L87.10 160.80ZM87.10 146.60L98.65 146.60L98.65 148.07L87.10 148.07L87.10 146.60ZM100.79 168.61L101.21 168.61L98.95 176L91.55 176L93.07 174.53Q95.25 174.53 96.72 173.79Q98.19 173.06 99.16 171.72Q100.12 170.37 100.79 168.61L100.79 168.61ZM93.82 162.14L96.76 162.14L96.76 165.33L96.34 165.33L96.34 164.79Q96.34 163.74 95.63 162.98Q94.91 162.22 93.82 162.22L93.82 162.22L93.82 162.14ZM96.34 157.69L96.76 157.69L96.76 160.88L93.82 160.88L93.82 160.80Q94.91 160.75 95.63 160.00Q96.34 159.24 96.34 158.19L96.34 158.19L96.34 157.69ZM95.17 147.94L98.65 147.94L98.65 151.81L98.23 151.81L98.23 151.14Q98.23 149.83 97.37 148.95Q96.51 148.07 95.17 148.03L95.17 148.03L95.17 147.94ZM98.65 145.84L98.65 145.84L98.65 147.06L93.53 146.60Q94.45 146.60 95.48 146.47Q96.51 146.35 97.39 146.18Q98.27 146.01 98.65 145.84ZM83.32 172.93L83.45 172.93L83.45 176L80.09 176L80.09 175.58Q80.09 175.58 80.36 175.58Q80.63 175.58 80.63 175.58L80.63 175.58Q81.73 175.58 82.50 174.80Q83.28 174.03 83.32 172.93L83.32 172.93ZM83.45 146.60L83.45 149.67L83.32 149.67Q83.32 148.57 82.52 147.80Q81.73 147.02 80.63 147.02L80.63 147.02Q80.63 147.02 80.38 147.02Q80.13 147.02 80.13 147.02L80.13 147.02L80.09 146.60L83.45 146.60Z M109.95 150.76L109.53 145.97L134.73 171.84L135.15 176.59L109.95 150.76ZM109.53 173.02L109.66 173.02L109.66 176L106.17 176L106.17 175.58Q106.17 175.58 106.55 175.58Q106.93 175.58 106.97 175.58L106.97 175.58Q108.02 175.58 108.77 174.82Q109.53 174.07 109.53 173.02L109.53 173.02ZM112.68 173.02L112.81 173.02Q112.81 174.07 113.56 174.82Q114.32 175.58 115.37 175.58L115.37 175.58Q115.41 175.58 115.79 175.58Q116.17 175.58 116.17 175.58L116.17 175.58L116.17 176L112.68 176L112.68 173.02ZM109.11 145.97L109.53 145.97L112.76 149.67L112.81 176L109.53 176L109.53 151.22Q109.53 148.99 109.32 147.48Q109.11 145.97 109.11 145.97L109.11 145.97ZM131.87 146.60L135.11 146.60L135.11 171.21Q135.11 172.64 135.21 173.88Q135.32 175.12 135.42 175.85Q135.53 176.59 135.53 176.59L135.53 176.59L135.15 176.59L131.87 172.85L131.87 146.60ZM134.98 146.60L138.47 146.60L138.47 147.02Q138.47 147.02 138.09 147.02Q137.71 147.02 137.71 147.02L137.71 147.02Q136.66 147.02 135.91 147.75Q135.15 148.49 135.11 149.58L135.11 149.58L134.98 149.58L134.98 146.60ZM128.47 147.02L128.47 146.60L131.96 146.60L131.96 149.58L131.87 149.58Q131.83 148.49 131.10 147.75Q130.36 147.02 129.27 147.02L129.27 147.02Q129.27 147.02 128.89 147.02Q128.51 147.02 128.47 147.02L128.47 147.02Z M153.21 146.73L157.12 146.73L157.12 176L153.21 176L153.21 146.73ZM142.58 146.56L167.74 146.56L167.74 147.99L142.58 147.99L142.58 146.56ZM164.26 147.86L167.74 147.86L167.74 151.77L167.32 151.72L167.32 151.09Q167.32 149.75 166.46 148.89Q165.60 148.03 164.26 147.99L164.26 147.99L164.26 147.86ZM167.74 145.80L167.74 145.80L167.74 147.02L162.62 146.56Q163.54 146.56 164.57 146.43Q165.60 146.31 166.48 146.14Q167.36 145.97 167.74 145.80ZM153.21 172.93L153.34 172.93L153.34 176L149.98 176L149.98 175.58Q149.98 175.58 150.25 175.58Q150.52 175.58 150.52 175.58L150.52 175.58Q151.61 175.58 152.39 174.80Q153.17 174.03 153.21 172.93L153.21 172.93ZM156.99 176L156.99 172.93L157.12 172.93Q157.16 174.03 157.93 174.80Q158.71 175.58 159.80 175.58L159.80 175.58Q159.80 175.58 160.08 175.58Q160.35 175.58 160.35 175.58L160.35 175.58L160.35 176L156.99 176ZM142.58 147.86L146.07 147.86L146.07 147.99Q144.73 148.03 143.86 148.89Q143.00 149.75 143.00 151.09L143.00 151.09L143.00 151.72L142.58 151.77L142.58 147.86ZM142.58 147.02L142.58 145.80Q143.00 145.97 143.86 146.14Q144.73 146.31 145.78 146.43Q146.83 146.56 147.71 146.56L147.71 146.56L142.58 147.02Z M188.32 146.01L188.32 146.01Q193.03 146.01 196.53 147.90Q200.04 149.79 201.99 153.24Q203.95 156.68 203.95 161.30L203.95 161.30Q203.95 165.92 201.99 169.36Q200.04 172.81 196.53 174.70Q193.03 176.59 188.32 176.59L188.32 176.59Q183.70 176.59 180.19 174.70Q176.69 172.81 174.73 169.36Q172.78 165.92 172.78 161.30L172.78 161.30Q172.78 156.68 174.73 153.24Q176.69 149.79 180.19 147.90Q183.70 146.01 188.32 146.01ZM188.32 175.16L188.32 175.16Q191.72 175.16 194.20 173.44Q196.68 171.72 198.07 168.61Q199.45 165.50 199.45 161.30L199.45 161.30Q199.45 157.10 198.07 153.99Q196.68 150.88 194.20 149.16Q191.72 147.44 188.32 147.44L188.32 147.44Q185.00 147.44 182.50 149.16Q180.01 150.88 178.62 153.99Q177.23 157.10 177.23 161.30L177.23 161.30Q177.23 165.50 178.62 168.61Q180.01 171.72 182.50 173.44Q185.00 175.16 188.32 175.16Z M213.06 150.76L212.64 145.97L237.84 171.84L238.26 176.59L213.06 150.76ZM212.64 173.02L212.77 173.02L212.77 176L209.28 176L209.28 175.58Q209.28 175.58 209.66 175.58Q210.04 175.58 210.08 175.58L210.08 175.58Q211.13 175.58 211.88 174.82Q212.64 174.07 212.64 173.02L212.64 173.02ZM215.79 173.02L215.92 173.02Q215.92 174.07 216.67 174.82Q217.43 175.58 218.48 175.58L218.48 175.58Q218.52 175.58 218.90 175.58Q219.28 175.58 219.28 175.58L219.28 175.58L219.28 176L215.79 176L215.79 173.02ZM212.22 145.97L212.64 145.97L215.87 149.67L215.92 176L212.64 176L212.64 151.22Q212.64 148.99 212.43 147.48Q212.22 145.97 212.22 145.97L212.22 145.97ZM234.98 146.60L238.22 146.60L238.22 171.21Q238.22 172.64 238.32 173.88Q238.43 175.12 238.53 175.85Q238.64 176.59 238.64 176.59L238.64 176.59L238.26 176.59L234.98 172.85L234.98 146.60ZM238.09 146.60L241.58 146.60L241.58 147.02Q241.58 147.02 241.20 147.02Q240.82 147.02 240.82 147.02L240.82 147.02Q239.77 147.02 239.02 147.75Q238.26 148.49 238.22 149.58L238.22 149.58L238.09 149.58L238.09 146.60ZM231.58 147.02L231.58 146.60L235.07 146.60L235.07 149.58L234.98 149.58Q234.94 148.49 234.21 147.75Q233.47 147.02 232.38 147.02L232.38 147.02Q232.38 147.02 232.00 147.02Q231.62 147.02 231.58 147.02L231.58 147.02Z"/>
  <path fill="#8C7E6E" d="M92.16 203L88.48 203L88.48 191.68L91.74 191.68Q92.71 191.68 93.42 191.87Q94.12 192.06 94.59 192.44Q95.05 192.81 95.28 193.34Q95.51 193.88 95.51 194.56L95.51 194.56Q95.51 195.01 95.35 195.42Q95.20 195.84 94.90 196.19Q94.60 196.54 94.18 196.80Q93.75 197.06 93.20 197.20L93.20 197.20Q94.53 197.40 95.25 198.09Q95.97 198.78 95.97 199.90L95.97 199.90Q95.97 200.62 95.72 201.20Q95.46 201.78 94.97 202.18Q94.48 202.58 93.77 202.79Q93.06 203 92.16 203L92.16 203ZM92.15 197.58L89.30 197.58L89.30 202.34L92.14 202.34Q93.64 202.34 94.40 201.70Q95.16 201.06 95.16 199.89L95.16 199.89Q95.16 199.35 94.95 198.92Q94.75 198.50 94.36 198.20Q93.98 197.90 93.42 197.74Q92.86 197.58 92.15 197.58L92.15 197.58ZM89.30 192.33L89.30 196.98L91.76 196.98Q92.54 196.98 93.10 196.78Q93.65 196.58 94.01 196.25Q94.36 195.92 94.53 195.50Q94.70 195.09 94.70 194.65L94.70 194.65Q94.70 193.50 93.98 192.92Q93.25 192.33 91.74 192.33L91.74 192.33L89.30 192.33Z M107.40 202.42L107.40 202.42Q108.22 202.42 108.86 202.13Q109.51 201.85 109.96 201.34Q110.40 200.84 110.64 200.16Q110.88 199.47 110.88 198.68L110.88 198.68L110.88 191.68L111.69 191.68L111.69 198.68Q111.69 199.62 111.40 200.43Q111.10 201.24 110.54 201.84Q109.99 202.45 109.19 202.79Q108.40 203.14 107.40 203.14L107.40 203.14Q106.41 203.14 105.62 202.79Q104.82 202.45 104.26 201.84Q103.71 201.24 103.41 200.43Q103.12 199.62 103.12 198.68L103.12 198.68L103.12 191.68L103.94 191.68L103.94 198.67Q103.94 199.46 104.18 200.15Q104.41 200.83 104.86 201.34Q105.30 201.84 105.94 202.13Q106.59 202.42 107.40 202.42Z M120.56 191.68L120.56 203L119.73 203L119.73 191.68L120.56 191.68Z M129.52 191.68L129.52 202.30L134.88 202.30L134.88 203L128.70 203L128.70 191.68L129.52 191.68Z M150.89 197.34L150.89 197.34Q150.89 198.65 150.50 199.70Q150.11 200.74 149.40 201.48Q148.68 202.22 147.69 202.61Q146.70 203 145.49 203L145.49 203L141.36 203L141.36 191.68L145.49 191.68Q146.70 191.68 147.69 192.07Q148.68 192.46 149.40 193.20Q150.11 193.94 150.50 194.98Q150.89 196.03 150.89 197.34ZM150.04 197.34L150.04 197.34Q150.04 196.15 149.72 195.22Q149.39 194.30 148.79 193.66Q148.20 193.02 147.36 192.68Q146.52 192.34 145.49 192.34L145.49 192.34L142.19 192.34L142.19 202.34L145.49 202.34Q146.52 202.34 147.36 202Q148.20 201.66 148.79 201.02Q149.39 200.38 149.72 199.46Q150.04 198.53 150.04 197.34Z M158.00 191.68L164.79 191.68L164.79 192.36L158.83 192.36L158.83 196.94L163.79 196.94L163.79 197.60L158.83 197.60L158.83 202.32L164.79 202.32L164.79 203L158.00 203L158.00 191.68Z M174.48 197.88L173.00 197.88L173.00 203L172.18 203L172.18 191.68L175.07 191.68Q177.03 191.68 178.00 192.44Q178.96 193.19 178.96 194.66L178.96 194.66Q178.96 195.30 178.74 195.84Q178.52 196.38 178.10 196.78Q177.68 197.18 177.08 197.44Q176.49 197.70 175.75 197.78L175.75 197.78Q175.94 197.90 176.09 198.10L176.09 198.10L179.99 203L179.28 203Q179.15 203 179.06 202.95Q178.96 202.90 178.88 202.79L178.88 202.79L175.25 198.20Q175.12 198.02 174.96 197.95Q174.80 197.88 174.48 197.88L174.48 197.88ZM173.00 192.33L173.00 197.27L174.96 197.27Q175.72 197.27 176.31 197.09Q176.91 196.91 177.32 196.58Q177.73 196.24 177.95 195.77Q178.16 195.30 178.16 194.70L178.16 194.70Q178.16 193.50 177.37 192.91Q176.58 192.33 175.07 192.33L175.07 192.33L173.00 192.33Z M192.18 192.69L191.99 193.06Q191.92 193.19 191.78 193.19L191.78 193.19Q191.68 193.19 191.51 193.04Q191.35 192.90 191.07 192.72Q190.79 192.54 190.37 192.38Q189.95 192.23 189.33 192.23L189.33 192.23Q188.72 192.23 188.25 192.41Q187.78 192.58 187.46 192.89Q187.15 193.19 186.98 193.59Q186.82 193.99 186.82 194.43L186.82 194.43Q186.82 195.01 187.06 195.38Q187.31 195.76 187.71 196.02Q188.11 196.29 188.62 196.47Q189.12 196.65 189.66 196.82Q190.20 197 190.70 197.21Q191.21 197.42 191.61 197.74Q192.01 198.06 192.26 198.53Q192.50 199 192.50 199.70L192.50 199.70Q192.50 200.41 192.26 201.04Q192.01 201.66 191.55 202.13Q191.08 202.59 190.41 202.86Q189.74 203.13 188.88 203.13L188.88 203.13Q187.76 203.13 186.95 202.73Q186.14 202.34 185.53 201.65L185.53 201.65L185.76 201.30Q185.85 201.18 185.98 201.18L185.98 201.18Q186.05 201.18 186.16 201.27Q186.28 201.37 186.44 201.51Q186.60 201.65 186.82 201.81Q187.04 201.98 187.34 202.12Q187.64 202.26 188.02 202.35Q188.40 202.45 188.89 202.45L188.89 202.45Q189.56 202.45 190.09 202.24Q190.62 202.04 190.98 201.69Q191.35 201.34 191.54 200.85Q191.73 200.37 191.73 199.82L191.73 199.82Q191.73 199.22 191.49 198.83Q191.24 198.44 190.84 198.18Q190.44 197.92 189.94 197.74Q189.43 197.57 188.89 197.40Q188.36 197.23 187.85 197.02Q187.34 196.82 186.94 196.49Q186.54 196.17 186.30 195.68Q186.05 195.20 186.05 194.47L186.05 194.47Q186.05 193.90 186.27 193.38Q186.48 192.85 186.90 192.44Q187.32 192.04 187.93 191.80Q188.54 191.55 189.32 191.55L189.32 191.55Q190.20 191.55 190.90 191.83Q191.60 192.11 192.18 192.69L192.18 192.69Z"/>
</svg>
