<?xml version="1.0" encoding="UTF-8"?>
<svg xmlns="http://www.w3.org/2000/svg" viewBox="0 0 300 360" width="300" height="360" role="img" aria-labelledby="title desc">
  <title id="title">Menton Builders</title>
  <desc id="desc">Menton Builders stacked logo with wordmarks converted to paths for font-independent rendering.</desc>
  <g fill="none" stroke="#8C7E6E" stroke-width="10" stroke-linejoin="miter" stroke-miterlimit="10">
    <polygon points="140,72 190,122 140,172 90,122"/>
    <polygon points="160,88 210,138 160,188 110,138"/>
    <line x1="140" y1="72" x2="190" y2="122"/>
  </g>
  <path fill="#2F2C28" d="M70.82 260.35L70.82 260.35L70.82 261.47Q69.02 261.53 68.13 261.89Q67.23 262.26 66.92 263.24Q66.62 264.22 66.62 266.29L66.62 266.29L66.62 294.06Q66.62 296.08 66.92 297.09Q67.23 298.10 68.13 298.43Q69.02 298.77 70.82 298.88L70.82 298.88L70.82 300Q69.25 299.89 66.87 299.86Q64.49 299.83 62.02 299.83L62.02 299.83Q59.34 299.83 56.98 299.86Q54.63 299.89 53.18 300L53.18 300L53.18 298.88Q55.08 298.77 56.06 298.43Q57.04 298.10 57.38 297.09Q57.71 296.08 57.71 294.06L57.71 294.06L57.71 263.77L58.10 263.77L44.22 300.06L43.32 300.06L28.20 263.99L28.20 290.82Q28.20 293.90 28.54 295.55Q28.87 297.20 30.02 297.90Q31.17 298.60 33.63 298.88L33.63 298.88L33.63 300Q32.57 299.89 30.83 299.86Q29.10 299.83 27.58 299.83L27.58 299.83Q26.30 299.83 24.95 299.86Q23.61 299.89 22.71 300L22.71 300L22.71 298.88Q24.50 298.60 25.40 297.93Q26.30 297.26 26.60 295.72Q26.91 294.18 26.91 291.49L26.91 291.49L26.91 266.29Q26.91 264.22 26.60 263.24Q26.30 262.26 25.37 261.89Q24.45 261.53 22.71 261.47L22.71 261.47L22.71 260.35Q23.61 260.41 24.95 260.46Q26.30 260.52 27.58 260.52L27.58 260.52Q29.99 260.52 32.32 260.46Q34.64 260.41 36.43 260.35L36.43 260.35L48.19 288.74L46.79 290.03L58.05 260.52Q59.00 260.52 60.01 260.52Q61.02 260.52 62.02 260.52L62.02 260.52Q64.49 260.52 66.87 260.46Q69.25 260.41 70.82 260.35Z M106.21 260.35L106.21 260.35Q105.98 262.82 105.90 265.11Q105.82 267.41 105.82 268.64L105.82 268.64Q105.82 269.76 105.87 270.77Q105.93 271.78 105.98 272.45L105.98 272.45L104.70 272.45Q104.14 268.36 102.96 265.98Q101.78 263.60 99.91 262.62Q98.03 261.64 95.51 261.64L95.51 261.64L93.22 261.64Q91.59 261.64 90.75 261.92Q89.91 262.20 89.63 263.04Q89.35 263.88 89.35 265.62L89.35 265.62L89.35 294.74Q89.35 296.47 89.63 297.31Q89.91 298.15 90.75 298.43Q91.59 298.71 93.22 298.71L93.22 298.71L95.96 298.71Q98.48 298.71 100.41 297.62Q102.34 296.53 103.72 293.90Q105.09 291.26 105.82 286.78L105.82 286.78L107.10 286.78Q106.94 288.58 106.94 291.49L106.94 291.49Q106.94 292.78 106.99 295.13Q107.05 297.48 107.33 300L107.33 300Q104.47 299.89 100.89 299.86Q97.30 299.83 94.50 299.83L94.50 299.83Q93.10 299.83 90.92 299.83Q88.74 299.83 86.22 299.86Q83.70 299.89 81.12 299.92Q78.54 299.94 76.25 300L76.25 300L76.25 298.88Q78.04 298.77 78.94 298.43Q79.83 298.10 80.14 297.09Q80.45 296.08 80.45 294.06L80.45 294.06L80.45 266.29Q80.45 264.22 80.14 263.24Q79.83 262.26 78.91 261.89Q77.98 261.53 76.25 261.47L76.25 261.47L76.25 260.35Q78.54 260.41 81.12 260.44Q83.70 260.46 86.22 260.49Q88.74 260.52 90.92 260.52Q93.10 260.52 94.50 260.52L94.50 260.52Q97.08 260.52 100.36 260.49Q103.63 260.46 106.21 260.35ZM87.67 279.50L97.47 279.50Q97.47 279.50 97.47 280.06Q97.47 280.62 97.47 280.62L97.47 280.62L87.67 280.62Q87.67 280.62 87.67 280.06Q87.67 279.50 87.67 279.50L87.67 279.50ZM97.81 272.11L99.10 272.11Q98.87 275.30 98.90 276.98Q98.93 278.66 98.93 280.06L98.93 280.06Q98.93 281.46 98.98 283.14Q99.04 284.82 99.26 288.02L99.26 288.02L97.98 288.02Q97.70 286.06 96.94 284.38Q96.18 282.70 94.78 281.66Q93.38 280.62 91.14 280.62L91.14 280.62L91.14 279.50Q92.82 279.50 94 278.80Q95.18 278.10 95.93 276.96Q96.69 275.81 97.14 274.52Q97.58 273.23 97.81 272.11L97.81 272.11Z M150.34 260.35L150.34 260.35L150.34 261.47Q148.54 261.70 147.65 262.40Q146.75 263.10 146.44 264.61Q146.14 266.12 146.14 268.86L146.14 268.86L146.14 300.11Q145.46 300.06 144.76 300.06Q144.06 300.06 143.28 300.11L143.28 300.11L118.98 269.31L118.98 290.82Q118.98 293.90 119.31 295.55Q119.65 297.20 120.80 297.90Q121.94 298.60 124.41 298.88L124.41 298.88L124.41 300Q123.34 299.89 121.61 299.86Q119.87 299.83 118.36 299.83L118.36 299.83Q117.07 299.83 115.73 299.86Q114.38 299.89 113.49 300L113.49 300L113.49 298.88Q115.28 298.60 116.18 297.93Q117.07 297.26 117.38 295.72Q117.69 294.18 117.69 291.49L117.69 291.49L117.69 266.29Q117.69 264.22 117.38 263.24Q117.07 262.26 116.15 261.89Q115.22 261.53 113.49 261.47L113.49 261.47L113.49 260.35Q114.38 260.41 115.73 260.46Q117.07 260.52 118.36 260.52L118.36 260.52Q119.70 260.52 120.94 260.46Q122.17 260.41 123.18 260.35L123.18 260.35L144.85 287.06L144.85 269.54Q144.85 266.46 144.51 264.80Q144.18 263.15 143.03 262.42Q141.88 261.70 139.42 261.47L139.42 261.47L139.42 260.35Q140.48 260.41 142.22 260.46Q143.95 260.52 145.46 260.52L145.46 260.52Q146.81 260.52 148.12 260.46Q149.44 260.41 150.34 260.35Z M189.59 260.35L189.59 260.35Q189.37 263.21 189.28 265.84Q189.20 268.47 189.20 269.87L189.20 269.87Q189.20 271.10 189.26 272.22Q189.31 273.34 189.37 274.13L189.37 274.13L188.08 274.13Q187.18 269.42 185.81 266.68Q184.44 263.94 182.54 262.79Q180.63 261.64 178.06 261.64L178.06 261.64L176.77 261.64L176.77 293.62Q176.77 295.86 177.24 296.98Q177.72 298.10 179.01 298.46Q180.30 298.82 182.76 298.88L182.76 298.88L182.76 300Q181.02 299.94 178.14 299.89Q175.26 299.83 172.12 299.83L172.12 299.83Q169.04 299.83 166.30 299.89Q163.55 299.94 161.87 300L161.87 300L161.87 298.88Q164.39 298.82 165.68 298.46Q166.97 298.10 167.42 296.98Q167.86 295.86 167.86 293.62L167.86 293.62L167.86 261.64L166.63 261.64Q164.06 261.64 162.15 262.79Q160.25 263.94 158.90 266.65Q157.56 269.37 156.55 274.13L156.55 274.13L155.26 274.13Q155.38 273.34 155.40 272.22Q155.43 271.10 155.43 269.87L155.43 269.87Q155.43 268.47 155.35 265.84Q155.26 263.21 155.04 260.35L155.04 260.35Q157.62 260.41 160.67 260.46Q163.72 260.52 166.80 260.52Q169.88 260.52 172.34 260.52L172.34 260.52Q174.86 260.52 177.92 260.52Q180.97 260.52 184.05 260.46Q187.13 260.41 189.59 260.35Z M214.96 259.57L214.96 259.57Q220.90 259.57 225.35 261.98Q229.80 264.38 232.26 268.89Q234.73 273.40 234.73 279.84L234.73 279.84Q234.73 286.11 232.21 290.82Q229.69 295.52 225.18 298.15Q220.67 300.78 214.90 300.78L214.90 300.78Q208.97 300.78 204.52 298.38Q200.06 295.97 197.60 291.43Q195.14 286.90 195.14 280.51L195.14 280.51Q195.14 274.24 197.68 269.54Q200.23 264.83 204.68 262.20Q209.14 259.57 214.96 259.57ZM214.74 260.58L214.74 260.58Q211.60 260.58 209.28 263.10Q206.95 265.62 205.69 270.04Q204.43 274.46 204.43 280.29L204.43 280.29Q204.43 286.22 205.86 290.62Q207.29 295.02 209.72 297.40Q212.16 299.78 215.13 299.78L215.13 299.78Q218.26 299.78 220.59 297.26Q222.91 294.74 224.17 290.28Q225.43 285.83 225.43 280.06L225.43 280.06Q225.43 274.07 224.00 269.70Q222.58 265.34 220.14 262.96Q217.70 260.58 214.74 260.58Z M277.62 260.35L277.62 260.35L277.62 261.47Q275.83 261.70 274.94 262.40Q274.04 263.10 273.73 264.61Q273.42 266.12 273.42 268.86L273.42 268.86L273.42 300.11Q272.75 300.06 272.05 300.06Q271.35 300.06 270.57 300.11L270.57 300.11L246.26 269.31L246.26 290.82Q246.26 293.90 246.60 295.55Q246.94 297.20 248.08 297.90Q249.23 298.60 251.70 298.88L251.70 298.88L251.70 300Q250.63 299.89 248.90 299.86Q247.16 299.83 245.65 299.83L245.65 299.83Q244.36 299.83 243.02 299.86Q241.67 299.89 240.78 300L240.78 300L240.78 298.88Q242.57 298.60 243.46 297.93Q244.36 297.26 244.67 295.72Q244.98 294.18 244.98 291.49L244.98 291.49L244.98 266.29Q244.98 264.22 244.67 263.24Q244.36 262.26 243.44 261.89Q242.51 261.53 240.78 261.47L240.78 261.47L240.78 260.35Q241.67 260.41 243.02 260.46Q244.36 260.52 245.65 260.52L245.65 260.52Q246.99 260.52 248.22 260.46Q249.46 260.41 250.46 260.35L250.46 260.35L272.14 287.06L272.14 269.54Q272.14 266.46 271.80 264.80Q271.46 263.15 270.32 262.42Q269.17 261.70 266.70 261.47L266.70 261.47L266.70 260.35Q267.77 260.41 269.50 260.46Q271.24 260.52 272.75 260.52L272.75 260.52Q274.10 260.52 275.41 260.46Q276.73 260.41 277.62 260.35Z"/>
  <path fill="#8C7E6E" d="M77.81 330L71.48 330L71.48 312.09L77.19 312.09Q78.84 312.09 80.03 312.41Q81.23 312.74 81.99 313.34Q82.76 313.94 83.13 314.81Q83.50 315.68 83.50 316.76L83.50 316.76Q83.50 317.43 83.29 318.04Q83.09 318.65 82.67 319.18Q82.25 319.70 81.62 320.11Q80.99 320.52 80.14 320.79L80.14 320.79Q82.10 321.18 83.10 322.20Q84.10 323.23 84.10 324.90L84.10 324.90Q84.10 326.04 83.68 326.98Q83.26 327.91 82.46 328.59Q81.65 329.26 80.48 329.63Q79.31 330 77.81 330L77.81 330ZM77.76 321.84L73.90 321.84L73.90 328.07L77.78 328.07Q78.81 328.07 79.56 327.84Q80.30 327.60 80.78 327.17Q81.26 326.74 81.49 326.14Q81.71 325.55 81.71 324.84L81.71 324.84Q81.71 323.45 80.73 322.64Q79.75 321.84 77.76 321.84L77.76 321.84ZM73.90 314L73.90 320.11L77.10 320.11Q78.13 320.11 78.88 319.89Q79.63 319.66 80.12 319.26Q80.61 318.86 80.85 318.29Q81.09 317.73 81.09 317.05L81.09 317.05Q81.09 315.48 80.14 314.74Q79.19 314 77.19 314L77.19 314L73.90 314Z M100.86 328.07L100.86 328.07Q101.98 328.07 102.85 327.70Q103.73 327.32 104.33 326.65Q104.94 325.98 105.26 325.04Q105.58 324.10 105.58 322.98L105.58 322.98L105.58 312.09L107.99 312.09L107.99 322.98Q107.99 324.52 107.49 325.85Q107.00 327.18 106.08 328.14Q105.16 329.11 103.84 329.66Q102.51 330.21 100.86 330.21L100.86 330.21Q99.21 330.21 97.89 329.66Q96.56 329.11 95.64 328.14Q94.71 327.18 94.22 325.85Q93.73 324.52 93.73 322.98L93.73 322.98L93.73 312.09L96.14 312.09L96.14 322.96Q96.14 324.09 96.46 325.02Q96.78 325.96 97.38 326.64Q97.99 327.31 98.87 327.69Q99.75 328.07 100.86 328.07Z M121.28 312.09L121.28 330L118.85 330L118.85 312.09L121.28 312.09Z M134.75 312.09L134.75 327.96L142.50 327.96L142.50 330L132.33 330L132.33 312.09L134.75 312.09Z M166.95 321.05L166.95 321.05Q166.95 323.06 166.31 324.71Q165.68 326.36 164.51 327.54Q163.35 328.71 161.72 329.36Q160.10 330 158.13 330L158.13 330L151.43 330L151.43 312.09L158.13 312.09Q160.10 312.09 161.72 312.73Q163.35 313.38 164.51 314.56Q165.68 315.74 166.31 317.39Q166.95 319.04 166.95 321.05ZM164.46 321.05L164.46 321.05Q164.46 319.40 164.01 318.10Q163.56 316.80 162.74 315.90Q161.91 315 160.74 314.52Q159.56 314.05 158.13 314.05L158.13 314.05L153.86 314.05L153.86 328.04L158.13 328.04Q159.56 328.04 160.74 327.56Q161.91 327.09 162.74 326.19Q163.56 325.30 164.01 324Q164.46 322.70 164.46 321.05Z M176.50 312.09L187.54 312.09L187.54 314.06L178.94 314.06L178.94 320.01L185.90 320.01L185.90 321.91L178.94 321.91L178.94 328.02L187.54 328.02L187.54 330L176.50 330L176.50 312.09Z M201.78 322.52L199.94 322.52L199.94 330L197.53 330L197.53 312.09L202.59 312.09Q204.29 312.09 205.53 312.43Q206.76 312.77 207.57 313.43Q208.38 314.07 208.76 314.99Q209.15 315.91 209.15 317.05L209.15 317.05Q209.15 318 208.85 318.82Q208.55 319.65 207.98 320.31Q207.41 320.96 206.59 321.43Q205.78 321.89 204.74 322.13L204.74 322.13Q205.19 322.39 205.54 322.89L205.54 322.89L210.76 330L208.61 330Q207.95 330 207.64 329.49L207.64 329.49L202.99 323.09Q202.78 322.79 202.53 322.66Q202.28 322.52 201.78 322.52L201.78 322.52ZM199.94 314L199.94 320.76L202.47 320.76Q203.54 320.76 204.34 320.51Q205.15 320.25 205.69 319.78Q206.24 319.31 206.51 318.66Q206.79 318.01 206.79 317.23L206.79 317.23Q206.79 315.63 205.73 314.81Q204.67 314 202.59 314L202.59 314L199.94 314Z M229.39 313.74L228.80 314.89Q228.69 315.07 228.56 315.17Q228.44 315.26 228.24 315.26L228.24 315.26Q228.02 315.26 227.74 315.05Q227.46 314.84 227.03 314.58Q226.60 314.32 225.99 314.11Q225.39 313.90 224.52 313.90L224.52 313.90Q223.71 313.90 223.09 314.12Q222.46 314.34 222.04 314.71Q221.63 315.09 221.41 315.59Q221.20 316.10 221.20 316.69L221.20 316.69Q221.20 317.44 221.57 317.93Q221.94 318.43 222.54 318.77Q223.15 319.13 223.92 319.38Q224.69 319.64 225.49 319.91Q226.30 320.19 227.07 320.53Q227.84 320.88 228.44 321.40Q229.05 321.93 229.42 322.69Q229.79 323.45 229.79 324.56L229.79 324.56Q229.79 325.74 229.39 326.77Q228.99 327.80 228.22 328.56Q227.45 329.32 226.33 329.76Q225.21 330.20 223.79 330.20L223.79 330.20Q222.05 330.20 220.62 329.57Q219.19 328.94 218.17 327.86L218.17 327.86L218.88 326.71Q218.97 326.57 219.12 326.48Q219.26 326.39 219.44 326.39L219.44 326.39Q219.70 326.39 220.04 326.67Q220.38 326.95 220.88 327.29Q221.39 327.63 222.11 327.91Q222.82 328.19 223.86 328.19L223.86 328.19Q224.72 328.19 225.40 327.95Q226.07 327.71 226.54 327.28Q227.01 326.85 227.26 326.25Q227.51 325.65 227.51 324.91L227.51 324.91Q227.51 324.10 227.14 323.58Q226.77 323.06 226.17 322.71Q225.57 322.36 224.81 322.12Q224.04 321.88 223.23 321.62Q222.42 321.36 221.66 321.02Q220.89 320.69 220.29 320.15Q219.69 319.61 219.32 318.81Q218.95 318 218.95 316.81L218.95 316.81Q218.95 315.86 219.32 314.98Q219.69 314.09 220.39 313.40Q221.09 312.71 222.12 312.30Q223.15 311.89 224.49 311.89L224.49 311.89Q225.99 311.89 227.22 312.36Q228.46 312.84 229.39 313.74L229.39 313.74Z"/>
</svg>
